<svg xmlns="http://www.w3.org/2000/svg" viewBox="0 0 64 64" role="img" aria-label="Qurea Study">
  <defs>
    <linearGradient id="blue" x1="10" x2="54" y1="8" y2="56" gradientUnits="userSpaceOnUse">
      <stop offset="0" stop-color="#0b58bf" />
      <stop offset="1" stop-color="#001d62" />
    </linearGradient>
  </defs>
  <rect width="64" height="64" rx="16" fill="#ffffff" />
  <circle cx="32" cy="32" r="27" fill="url(#blue)" />
  <path
    d="M42.8 47.2 36.2 41c-1.7.8-3.7 1.2-5.8 1.2-8 0-13.8-5.7-13.8-13.3 0-7.7 5.8-13.4 13.8-13.4 7.9 0 13.7 5.7 13.7 13.4 0 3.3-1.1 6.2-3 8.4l6.7 6.3-5 3.6ZM30.4 36.2c4.2 0 7.1-3.1 7.1-7.3s-2.9-7.4-7.1-7.4c-4.3 0-7.2 3.2-7.2 7.4s2.9 7.3 7.2 7.3Z"
    fill="#ffffff"
  />
  <path d="M48 13 57 13 48 22Z" fill="#a8d460" />
</svg>
